<?xml version="1.0" encoding="UTF-8" standalone="no"?>
<svg
   id="Layer_2"
   data-name="Layer 2"
   viewBox="0 0 1313.65 237.13"
   version="1.1"
   sodipodi:docname="logo_text_light.svg"
   inkscape:version="1.2.2 (1:1.2.2+202305151914+b0a8486541)"
   xmlns:inkscape="http://www.inkscape.org/namespaces/inkscape"
   xmlns:sodipodi="http://sodipodi.sourceforge.net/DTD/sodipodi-0.dtd"
   xmlns:xlink="http://www.w3.org/1999/xlink"
   xmlns="http://www.w3.org/2000/svg"
   xmlns:svg="http://www.w3.org/2000/svg">
  <sodipodi:namedview
     id="namedview47"
     pagecolor="#ffffff"
     bordercolor="#000000"
     borderopacity="0.25"
     inkscape:showpageshadow="2"
     inkscape:pageopacity="0.0"
     inkscape:pagecheckerboard="0"
     inkscape:deskcolor="#d1d1d1"
     showgrid="false"
     inkscape:zoom="0.32942515"
     inkscape:cx="570.6911"
     inkscape:cy="80.44316"
     inkscape:window-width="1366"
     inkscape:window-height="654"
     inkscape:window-x="0"
     inkscape:window-y="27"
     inkscape:window-maximized="1"
     inkscape:current-layer="Layer_2" />
  <defs
     id="defs26">
    <style
       id="style2">.cls-1{fill:url(#White_Black);}.cls-2{fill:url(#White_Black-2);}.cls-3{fill:url(#White_Black-3);}.cls-4{mask:url(#mask);}.cls-5{mask:url(#mask-2);}.cls-6{mask:url(#mask-3);}.cls-7{fill:#fff;}</style>
    <linearGradient
       id="White_Black"
       x1="-3091.62"
       y1="1087.01"
       x2="-3242.36"
       y2="985.74"
       gradientTransform="translate(-1237.09 -348.5) rotate(-180)"
       gradientUnits="userSpaceOnUse">
      <stop
         offset="0"
         stop-color="#fff"
         id="stop4" />
      <stop
         offset="1"
         stop-color="#231f20"
         id="stop6" />
    </linearGradient>
    <linearGradient
       id="White_Black-2"
       x1="2944.24"
       y1="1429.35"
       x2="2458.42"
       y2="1102.96"
       gradientTransform="translate(-3177.9 -3507.38) rotate(90)"
       xlink:href="#White_Black" />
    <linearGradient
       id="White_Black-3"
       x1="3265.1"
       y1="300.42"
       x2="2779.27"
       y2="-25.97"
       gradientTransform="translate(-7226.66 -1558.39)"
       xlink:href="#White_Black" />
    <mask
       id="mask"
       x="1901.8"
       y="-1460.12"
       width="168.2"
       height="109.01"
       maskUnits="userSpaceOnUse">
      <g
         transform="translate(-0.87 -59.01)"
         id="g13">
        <rect
           class="cls-1"
           x="1907.64"
           y="-1391.65"
           width="158.25"
           height="90.1"
           transform="translate(182.2 235.84) rotate(-7.12)"
           id="rect11" />
      </g>
    </mask>
    <mask
       id="mask-2"
       x="-4497.67"
       y="-1319.24"
       width="351.34"
       height="542.08"
       maskUnits="userSpaceOnUse">
      <g
         transform="translate(-0.87 -59.01)"
         id="g18">
        <rect
           class="cls-2"
           x="-4466.32"
           y="-1244.2"
           width="290.37"
           height="510.03"
           transform="translate(89.28 -543.15) rotate(-7.12)"
           id="rect16" />
      </g>
    </mask>
    <mask
       id="mask-3"
       x="-4659.48"
       y="-1778.77"
       width="542.08"
       height="351.34"
       maskUnits="userSpaceOnUse">
      <g
         transform="translate(-0.87 -59.01)"
         id="g23">
        <rect
           class="cls-3"
           x="-4642.58"
           y="-1689.28"
           width="510.03"
           height="290.37"
           transform="translate(157.54 -555.66) rotate(-7.12)"
           id="rect21" />
      </g>
    </mask>
  </defs>
  <g
     aria-label="CACTU"
     transform="matrix(1.0417794,0,0,0.95989614,-150.39913,0)"
     id="text330"
     style="font-weight:bold;font-size:302.076px;-inkscape-font-specification:'sans-serif, Bold';fill:#ffffff;stroke-width:1.72624">
    <path
       d="m 337.78322,221.91232 q -15.63479,8.11239 -32.59707,12.24233 -16.96227,4.12995 -35.39953,4.12995 -55.01676,0 -87.17134,-30.67959 -32.15457,-30.82709 -32.15457,-83.48389 0,-52.804303 32.15457,-83.483896 32.15458,-30.8270905 87.17134,-30.8270905 18.43726,0 35.39953,4.1299455 16.96228,4.129945 32.59707,12.242337 V 71.759311 Q 322.00093,60.991954 306.66113,55.97702 q -15.33979,-5.014933 -32.30207,-5.014933 -30.38459,0 -47.78936,19.469741 -17.40477,19.469742 -17.40477,53.689292 0,34.07204 17.40477,53.54178 17.40477,19.46975 47.78936,19.46975 16.96228,0 32.30207,-5.01494 15.3398,-5.01493 31.12209,-15.78229 z"
       id="path456"
       style="fill:#ffffff" />
    <path
       d="m 518.46833,193.88769 h -88.79382 l -14.01232,40.11947 H 358.58045 L 440.14687,13.792581 h 67.7016 l 81.56641,220.214579 h -57.08174 z m -74.63401,-40.85696 h 60.3267 l -30.0896,-87.613835 z"
       id="path458"
       style="fill:#ffffff" />
    <path
       d="m 793.25716,221.91232 q -15.63479,8.11239 -32.59707,12.24233 -16.96227,4.12995 -35.39953,4.12995 -55.01677,0 -87.17134,-30.67959 -32.15457,-30.82709 -32.15457,-83.48389 0,-52.804303 32.15457,-83.483896 32.15457,-30.8270905 87.17134,-30.8270905 18.43726,0 35.39953,4.1299455 16.96228,4.129945 32.59707,12.242337 V 71.759311 Q 777.47487,60.991954 762.13507,55.97702 746.79528,50.962087 729.833,50.962087 q -30.38459,0 -47.78936,19.469741 -17.40477,19.469742 -17.40477,53.689292 0,34.07204 17.40477,53.54178 17.40477,19.46975 47.78936,19.46975 16.96228,0 32.30207,-5.01494 15.3398,-5.01493 31.12209,-15.78229 z"
       id="path460"
       style="fill:#ffffff" />
    <path
       d="m 814.0544,13.792581 h 202.9573 v 42.92193 H 944.00018 V 234.00716 H 887.21343 V 56.714511 H 814.0544 Z"
       id="path462"
       style="fill:#ffffff" />
    <path
       d="m 1046.3638,13.792581 h 56.7867 V 145.80333 q 0,27.28714 8.8499,39.08698 8.9974,11.65234 29.2046,11.65234 20.3548,0 29.2047,-11.65234 8.9973,-11.79984 8.9973,-39.08698 V 13.792581 h 56.7868 V 145.80333 q 0,46.75688 -23.4522,69.61907 -23.4522,22.8622 -71.5366,22.8622 -47.9368,0 -71.389,-22.8622 -23.4522,-22.86219 -23.4522,-69.61907 z"
       id="path464"
       style="fill:#ffffff" />
  </g>
</svg>
