<svg id="Capa_1" data-name="Capa 1" xmlns="http://www.w3.org/2000/svg" viewBox="0 0 960.31 968.56"><defs><style>.cls-1{fill:#2e4e7d;}</style></defs><path class="cls-1" d="M659.56,774.13c0-35.62.06-71.24-.08-106.86,0-3.52,1-4.29,4.33-4.28q106.34.15,212.67,0c3.09,0,4.18.59,4.15,4q-.27,30.57,0,61.13c0,3.84-1.16,4.48-4.62,4.47-47.54-.11-95.07,0-142.61-.17-3.93,0-5,.91-5,5,.15,48.1,0,96.19.2,144.29,0,3.93-1.27,4.42-4.64,4.4q-29.88-.23-59.76,0c-3.63,0-4.8-.74-4.79-4.68C659.63,845.65,659.56,809.89,659.56,774.13Z" transform="translate(-19.85 -17.96)"/><path class="cls-1" d="M275.65,502.22c-1.13,1.2-2.13,2.31-3.19,3.38L169.57,609.37c-15.83,16-31.7,31.92-47.44,48-2,2-3,2.14-5.08,0q-21.57-22.07-43.44-43.8c-2.47-2.44-2-3.64.16-5.8q50.79-51,101.49-102.19c2.5-2.52,3-3.84.13-6.68q-51-51.12-101.8-102.49c-2.11-2.12-2.4-3.21-.11-5.48q21.88-21.74,43.42-43.82c2.25-2.31,3.31-2,5.42.11Q197.58,423.34,273,499.31C273.82,500.18,274.63,501.11,275.65,502.22Z" transform="translate(-19.85 -17.96)"/><path class="cls-1" d="M929.59,394.5a15.6,15.6,0,0,0-3.23,1.93q-40.12,40.38-80.17,80.83c-7.29,7.35-14.48,14.8-21.91,22-2.29,2.21-2.5,3.39-.13,5.77q43.7,43.82,87.19,87.84c5.14,5.19,10.23,10.45,15.47,15.55,1.71,1.67,2.07,2.64.13,4.57q-22.28,22.21-44.3,44.69c-1.84,1.88-2.76,1.71-4.52-.07Q802.4,581.1,726.52,504.74c-2.56-2.57-1.33-3.64.5-5.49q75.39-76,150.66-152c1.83-1.85,2.92-2.61,5.16-.31,14.56,14.9,29.28,29.65,43.95,44.45C927.46,392,928.06,392.78,929.59,394.5Z" transform="translate(-19.85 -17.96)"/><path class="cls-1" d="M655.79,885.75c-.68.8-1.17,1.46-1.75,2-14.85,15-29.75,30-44.52,45-2,2-3,1.35-4.56-.27q-40.59-41.07-81.25-82.06c-7-7.06-14.06-14-20.93-21.22-2.14-2.24-3.36-2.5-5.75-.08-33.72,34.2-67.6,68.23-101.3,102.46-2.85,2.89-4.2,2.79-7,0q-21-21.69-42.54-42.94c-2.19-2.18-2.2-3.32,0-5.53Q422,806.93,497.5,730.54c2-2,3-1.72,4.84.11q75.7,76.53,151.5,153C654.49,884.28,655.09,885,655.79,885.75Z" transform="translate(-19.85 -17.96)"/><path class="cls-1" d="M659.56,229.82c0-35.49.09-71-.11-106.45,0-4.38,1.24-5.18,5.27-5.13,19.78.21,39.57.18,59.35,0,3.55,0,4.59.74,4.58,4.52-.15,48.1,0,96.2-.2,144.29,0,4,1,5,5,5,47.53-.15,95.07-.05,142.61-.19,3.65,0,4.5.9,4.46,4.54q-.29,30.56,0,61.12c0,3.2-.9,3.83-3.9,3.83q-106.55-.13-213.09,0c-3.44,0-4-1.15-4-4.25C659.6,301.34,659.56,265.58,659.56,229.82Z" transform="translate(-19.85 -17.96)"/><path class="cls-1" d="M230.05,663.06c35.45,0,70.9.05,106.35-.08,3.31,0,4,1,4,4.14q-.13,107.49,0,215c0,3.49-1.16,4-4.17,3.95-20.2-.11-40.39-.15-60.59,0-3.51,0-4.25-1-4.24-4.37.11-48.1,0-96.21.17-144.31,0-4.1-1.17-5-5.06-5-47.54.14-95.08,0-142.62.18-3.7,0-4.53-1-4.5-4.59q.27-30.57,0-61.13c0-3.11.77-3.92,3.87-3.91C158.88,663.11,194.46,663.06,230.05,663.06Z" transform="translate(-19.85 -17.96)"/><path class="cls-1" d="M501,276c-2.46-.43-3.09-1.61-3.93-2.45q-33.68-33.93-67.32-67.89-41.67-42-83.39-84c-2.48-2.48-2.32-3.68.07-6Q368.19,94,389.58,72c2.23-2.28,3.32-2.07,5.44.08q50.78,51.41,101.63,102.72c2.46,2.48,3.65,2.88,6.35.13,33.69-34.21,67.57-68.22,101.27-102.42,2.62-2.67,3.84-2.46,6.32.07q21.23,21.81,42.83,43.24c2.18,2.17,2.21,3.25,0,5.48Q578.27,197,503.31,272.75A21.14,21.14,0,0,0,501,276Z" transform="translate(-19.85 -17.96)"/><path class="cls-1" d="M340.33,230c0,35.49-.08,71,.11,106.47,0,4.17-1.18,4.86-5,4.85q-105.54-.18-211.07,0c-4,0-5-1-5-5,.23-20,.2-39.93,0-59.89,0-3.58.77-4.64,4.49-4.63,47.54.14,95.09,0,142.64.19,4,0,5-1,5-5-.14-48,0-95.94-.15-143.91,0-3.67.72-4.91,4.66-4.87,19.92.22,39.85.19,59.77,0,3.5,0,4.6.66,4.58,4.48C340.26,158.5,340.33,194.27,340.33,230Z" transform="translate(-19.85 -17.96)"/><path class="cls-1" d="M499.62,392.7a51.28,51.28,0,0,1-51.13-51.84c.18-28.72,23.15-51.33,52.14-51.3,28,0,50.44,23.27,50.4,52.1A51.06,51.06,0,0,1,499.62,392.7Z" transform="translate(-19.85 -17.96)"/><path class="cls-1" d="M665.27,387.52a51.16,51.16,0,0,1-102.31.56c0-29.41,22.66-52.7,51.27-52.58C642.61,335.61,665.21,358.65,665.27,387.52Z" transform="translate(-19.85 -17.96)"/><path class="cls-1" d="M499.59,714.78a51.29,51.29,0,0,1-51.07-51.87c.19-28.31,23.31-51.47,51.35-51.42,28.57,0,51.19,23.18,51.14,52.31A50.94,50.94,0,0,1,499.59,714.78Z" transform="translate(-19.85 -17.96)"/><path class="cls-1" d="M437,387.3a51.19,51.19,0,1,1-102.37.5c-.26-28.71,22.79-52.26,51.24-52.35C414.09,335.36,436.84,358.44,437,387.3Z" transform="translate(-19.85 -17.96)"/><path class="cls-1" d="M341.85,450.54c29,1.23,50.66,24.93,49.55,54.29-1,27.81-25.37,50.32-53.06,49.12-29.12-1.26-50.5-25.33-49.19-55.38C290.33,471.47,314.56,449.4,341.85,450.54Z" transform="translate(-19.85 -17.96)"/><path class="cls-1" d="M71.57,450.55c28.82.23,51,23.4,50.68,53C122,531.43,98.54,554.25,70.45,554c-27.88-.29-50.66-23.57-50.6-51.69A51.34,51.34,0,0,1,71.57,450.55Z" transform="translate(-19.85 -17.96)"/><path class="cls-1" d="M665.29,617.29c0,28.5-22.86,51.59-51,51.59-28.81,0-51.36-23-51.33-52.46,0-28.3,22.94-50.87,51.59-50.82C642.78,565.64,665.32,588.61,665.29,617.29Z" transform="translate(-19.85 -17.96)"/><path class="cls-1" d="M877.79,502.08c.1-29.08,22.81-51.72,51.7-51.54,27.88.17,50.69,23.39,50.66,51.57A51.6,51.6,0,0,1,928.42,554C900.25,553.79,877.7,530.69,877.79,502.08Z" transform="translate(-19.85 -17.96)"/><path class="cls-1" d="M437.1,617.12a51.38,51.38,0,0,1-50.85,51.75c-27.83.19-51.4-22.77-51.55-50.22-.17-29.59,21.81-52.8,50.24-53C414.15,565.35,436.88,587.79,437.1,617.12Z" transform="translate(-19.85 -17.96)"/><path class="cls-1" d="M499.56,18c28-.22,51.19,22.7,51.45,50.75.27,28.82-22.11,52.43-49.93,52.67C472,121.64,448.76,99,448.5,70A51.62,51.62,0,0,1,499.56,18Z" transform="translate(-19.85 -17.96)"/><path class="cls-1" d="M710.94,502.3c-.14,28.78-23,51.75-51.37,51.65-28.23-.1-51.36-23.65-51.13-52.06.23-28.61,23.42-51.61,51.76-51.35A51.18,51.18,0,0,1,710.94,502.3Z" transform="translate(-19.85 -17.96)"/><path class="cls-1" d="M551,935.06c-.17,28.51-23,51.5-51.19,51.46s-51.62-23.7-51.31-51.91c.31-28.85,23.12-51.63,51.56-51.5S551.17,906.26,551,935.06Z" transform="translate(-19.85 -17.96)"/></svg>